<svg width="1" height="500" xmlns="http://www.w3.org/2000/svg">
                                    <g>
                                        <rect x="-1" y="-1" width="172" height="502" id="canvas_background" fill="#fff"></rect>
                                        <g id="canvasGrid" display="none">
                                            <rect id="svg_1" width="100%" height="100%" x="0" y="0" stroke-width="0" fill="url(#gridpattern)"></rect>
                                        </g>
                                    </g>
                                    <g>
                                        <g stroke="null" id="svg_3">
                                            <path stroke="#000" fill="#55ad59" stroke-width="1.5" d="m16.32201,121.181093l67.764166,-116.049304l67.764166,116.049304l-33.882091,0l0,116.607724l-67.76415,0l0,-116.607724l-33.882091,0z" id="svg_18"></path>
                                            <path stroke="#000" fill="#da3732" stroke-width="1.5" d="m152.190497,379.554498l-67.571437,116.161629l-67.956708,-115.93666l33.882044,-0.056242l-0.193563,-116.607548l67.764057,-0.112485l0.193563,116.607548l33.882044,-0.056242z" id="svg_19" style="fill: rgb(20, 110, 127);"></path>
                                            <rect stroke="#000" fill="#f7ca47" stroke-width="1.5" stroke-opacity="null" x="50.238194" y="239.775725" width="67.796925" height="21.165185" id="svg_20" style="fill: rgb(114, 168, 179);"></rect>
                                            <rect stroke="#000" fill="#ffffff" stroke-width="1.5" stroke-opacity="null" x="70.397099" y="98.055554" width="24.562591" height="128.441885" id="svg_22"></rect>
                                            <path stroke="#000" fill="#55ad59" stroke-width="1.5" d="m16.32201,121.181093l67.764166,-116.049304l67.764166,116.049304l-33.882091,0l0,116.607724l-67.76415,0l0,-116.607724l-33.882091,0z" id="svg_24" style="fill: rgb(189, 215, 221);"></path>
                                            <rect stroke="#55ad59" fill="#ffffff" stroke-width="1.5" x="69.119207" y="123.837893" width="26.07838" height="106.898229" id="svg_26" style="stroke: rgb(189, 215, 221); fill: rgb(189, 215, 221);"></rect>
                                            <rect stroke="#da3732" fill="#ffffff" stroke-width="1.5" x="69.119207" y="269.169088" width="28.17078" height="112.129225" id="svg_30" style="stroke: rgb(20, 110, 127); fill: rgb(20, 110, 127);"></rect>
                                            <text stroke="#f7ca47" fill="#000000" stroke-width="0" fill-opacity="null" x="11.693418" y="216.891597" id="svg_31" font-size="7" font-family="Helvetica, Arial, sans-serif" text-anchor="start" xml:space="preserve" transform="matrix(-0.0142293846342919,-1.8391891884931044,1.8391891884931044,-0.0142293846342919,-312.09410378035346,399.3500822400103) " font-weight="bold">Least preferable</text>
                                            <text stroke="#000" fill="#000000" stroke-width="0" stroke-opacity="null" fill-opacity="null" x="11.471835" y="123.720032" id="svg_32" font-size="7" font-family="Helvetica, Arial, sans-serif" text-anchor="start" xml:space="preserve" transform="matrix(-0.01888180653900149,-1.8496853973711946,1.8496853973711946,-0.01888180653900149,-142.69939893965184,249.19274596653312) " font-weight="bold">Most preferable</text>
                                        </g>
                                    </g>
                                </svg>