<?xml version="1.0"?>
<svg xmlns="http://www.w3.org/2000/svg" id="Layer_1" data-name="Layer 1" viewBox="0 0 512 512" width="512" height="512"><title>a1</title><path d="M422.538,300.364l-1.911,1.031c-9.073-10.773-24.593-14.9-36.44-8.9l-.133.069-4.961,2.673a40.038,40.038,0,0,0-45.591-4.206L305.525,306H268.272a53.3,53.3,0,0,1-23.178-5.065l-5.138-2.362a88.577,88.577,0,0,0-92.178,9.063c-.132.1-.259.234-.382.343l-12.407,11.06A42.649,42.649,0,0,1,119.3,327.9l-6.929-22.688A5.964,5.964,0,0,0,106.634,301h-60a5.939,5.939,0,0,0-5.956,6.669l20,164.029a6.024,6.024,0,0,0,5.956,5.3h90a6.055,6.055,0,0,0,5.739-7.807l-11.737-38.5,36.547-23.108a21.752,21.752,0,0,1,15.854-2.05c.124.031.25.057.376.08l74.9,13.793a97.355,97.355,0,0,0,60.154-8.494,5.939,5.939,0,0,0,.734-.43l129.557-88.955a6,6,0,0,0,1.744-8.042A35.97,35.97,0,0,0,422.538,300.364Zm-32.865,2.807c6.479-3.24,14.589-.709,19.956,4.157L361.02,333.552l-2.455,1.294a43.029,43.029,0,0,0-6.335-11.5Zm-50.37-1.387.143-.08a27.983,27.983,0,0,1,27.832-.1l-24.093,12.981a42.864,42.864,0,0,0-14.827-6.851ZM71.946,465,53.41,313h48.78l46.342,152Zm260.825-64.66a85.293,85.293,0,0,1-52.3,7.258l-74.708-13.757a33.708,33.708,0,0,0-24.574,3.335c-.093.053-.186.107-.276.165l-33.908,21.435-24.2-79.383a54.663,54.663,0,0,0,20.164-11.375l12.219-10.878a76.612,76.612,0,0,1,79.543-7.642l5.139,2.24a65.373,65.373,0,0,0,28.4,6.262H318.1a31.317,31.317,0,0,1,30.4,24.987L312.917,341.5a216.671,216.671,0,0,0-39.38,1.881,6.023,6.023,0,0,0,1.645,11.933,204.338,204.338,0,0,1,37.193-1.71l42.5,1.926c.091,0,.181.008.272.008a6,6,0,0,0,6-6c0-.823-.029-1.639-.075-2.451l5.592-2.948,61.57-33.216a23.993,23.993,0,0,1,28.531,4.278Z"/><path d="M88.918,442.229a18,18,0,1,0,18-18A18.021,18.021,0,0,0,88.918,442.229Zm18-6a6,6,0,1,1-6,6A6.006,6.006,0,0,1,106.918,436.229Z"/><path d="M212.53,190.532a155.839,155.839,0,0,0,166.94,0,156.125,156.125,0,0,0,56.4-62.966,6,6,0,0,0,0-5.285,155.762,155.762,0,0,0-279.742,0,6,6,0,0,0,0,5.285A156.125,156.125,0,0,0,212.53,190.532Zm6.441-121.093a143.759,143.759,0,0,1,204.8,55.485,144.148,144.148,0,0,1-50.738,55.483,143.839,143.839,0,0,1-154.058,0,144.148,144.148,0,0,1-50.738-55.483A144.153,144.153,0,0,1,218.971,69.439Z"/><path d="M296.332,164.613a40.992,40.992,0,0,0,40.175-49.295,6,6,0,0,0-10-3.149,11.437,11.437,0,0,1-16.027-.23h0a11.507,11.507,0,0,1,0-16.279c.243-.242.5-.471.759-.69a6,6,0,0,0-1.97-10.285,41.015,41.015,0,1,0-12.937,79.929ZM275.81,103.089a28.862,28.862,0,0,1,20.455-8.519c.237,0,.475,0,.712.009A23.555,23.555,0,0,0,325.225,126.4a29.024,29.024,0,1,1-49.415-23.311Z"/><path d="M296.876,187.834a62.911,62.911,0,1,0-62.911-62.91A62.981,62.981,0,0,0,296.876,187.834Zm0-113.821a50.911,50.911,0,1,1-50.911,50.911A50.968,50.968,0,0,1,296.876,74.013Z"/></svg>
