<svg xmlns="http://www.w3.org/2000/svg" height="939pt" version="1.1" viewBox="0 -1 939.99997 939" width="939pt">
<g id="surface1">
<path d="M 564.789062 531.847656 L 377.417969 531.847656 C 351.550781 531.847656 330.574219 552.820312 330.574219 578.691406 L 330.574219 890.976562 C 330.574219 916.847656 351.550781 937.820312 377.417969 937.820312 L 564.789062 937.820312 C 590.660156 937.820312 611.632812 916.847656 611.632812 890.976562 L 611.632812 578.691406 C 611.632812 552.820312 590.660156 531.847656 564.789062 531.847656 Z M 580.402344 890.976562 C 580.402344 899.597656 573.410156 906.589844 564.789062 906.589844 L 377.417969 906.589844 C 368.800781 906.589844 361.804688 899.597656 361.804688 890.976562 L 361.804688 578.691406 C 361.804688 570.070312 368.800781 563.078125 377.417969 563.078125 L 564.789062 563.078125 C 573.410156 563.078125 580.402344 570.070312 580.402344 578.691406 Z M 580.402344 890.976562 " style=" stroke:none;fill-rule:nonzero;fill:rgb(0%,0%,0%);fill-opacity:1;" />
<path d="M 892.683594 375.707031 L 705.316406 375.707031 C 679.449219 375.707031 658.476562 396.679688 658.476562 422.546875 L 658.476562 890.976562 C 658.476562 916.847656 679.449219 937.820312 705.316406 937.820312 L 892.683594 937.820312 C 918.5625 937.820312 939.527344 916.847656 939.527344 890.976562 L 939.527344 422.546875 C 939.527344 396.679688 918.5625 375.707031 892.683594 375.707031 Z M 908.300781 890.976562 C 908.300781 899.597656 901.3125 906.589844 892.683594 906.589844 L 705.316406 906.589844 C 696.699219 906.589844 689.699219 899.597656 689.699219 890.976562 L 689.699219 422.546875 C 689.699219 413.929688 696.699219 406.933594 705.316406 406.933594 L 892.683594 406.933594 C 901.3125 406.933594 908.300781 413.929688 908.300781 422.546875 Z M 908.300781 890.976562 " style=" stroke:none;fill-rule:nonzero;fill:rgb(0%,0%,0%);fill-opacity:1;" />
<path d="M 236.890625 453.777344 L 49.523438 453.777344 C 23.65625 453.777344 2.679688 474.753906 2.679688 500.621094 L 2.679688 890.976562 C 2.679688 916.847656 23.65625 937.820312 49.523438 937.820312 L 236.890625 937.820312 C 262.765625 937.820312 283.730469 916.847656 283.730469 890.976562 L 283.730469 500.621094 C 283.730469 474.753906 262.765625 453.777344 236.890625 453.777344 Z M 252.507812 890.976562 C 252.507812 899.597656 245.515625 906.589844 236.890625 906.589844 L 49.523438 906.589844 C 40.898438 906.589844 33.90625 899.597656 33.90625 890.976562 L 33.90625 500.621094 C 33.90625 492.003906 40.898438 485.003906 49.523438 485.003906 L 236.890625 485.003906 C 245.515625 485.003906 252.507812 492.003906 252.507812 500.621094 Z M 252.507812 890.976562 " style=" stroke:none;fill-rule:nonzero;fill:rgb(0%,0%,0%);fill-opacity:1;" />
<path d="M 720.929688 297.636719 C 720.929688 282.34375 716.40625 267.382812 707.925781 254.652344 L 818.476562 144.105469 C 852.003906 166.296875 896.890625 159.484375 922.328125 128.347656 C 947.777344 97.210938 945.496094 51.867188 917.0625 23.433594 C 888.628906 -4.996094 843.285156 -7.273438 812.148438 18.164062 C 781.007812 43.609375 774.199219 88.492188 796.398438 122.023438 L 685.847656 232.578125 C 655.386719 212.277344 614.882812 216.050781 588.695312 241.632812 L 418.125 124.988281 C 432.785156 90.882812 421.4375 51.164062 390.96875 29.957031 C 360.492188 8.742188 319.316406 11.882812 292.410156 37.472656 C 265.515625 63.070312 260.324219 104.039062 279.984375 135.535156 L 125.628906 280.742188 C 92.429688 256.984375 46.632812 262.273438 19.714844 292.964844 C -7.207031 323.648438 -6.46875 369.746094 21.402344 399.570312 C 49.289062 429.378906 95.230469 433.207031 127.652344 408.410156 C 160.082031 383.617188 168.425781 338.277344 146.957031 303.550781 L 301.316406 158.34375 C 331.839844 180.101562 373.5625 176.871094 400.363281 150.664062 L 570.933594 267.304688 C 558.628906 296.445312 565.148438 330.136719 587.414062 352.609375 C 609.699219 375.078125 643.332031 381.882812 672.582031 369.832031 C 701.839844 357.785156 720.929688 329.277344 720.929688 297.636719 Z M 861.460938 32.191406 C 887.332031 32.191406 908.300781 53.167969 908.300781 79.035156 C 908.300781 104.914062 887.332031 125.878906 861.460938 125.878906 C 835.589844 125.878906 814.617188 104.914062 814.617188 79.035156 C 814.617188 53.167969 835.589844 32.191406 861.460938 32.191406 Z M 80.75 391.324219 C 54.878906 391.324219 33.90625 370.351562 33.90625 344.480469 C 33.90625 318.613281 54.878906 297.636719 80.75 297.636719 C 106.621094 297.636719 127.589844 318.613281 127.589844 344.480469 C 127.589844 370.351562 106.621094 391.324219 80.75 391.324219 Z M 346.191406 141.496094 C 320.324219 141.496094 299.347656 120.523438 299.347656 94.652344 C 299.347656 68.785156 320.324219 47.808594 346.191406 47.808594 C 372.066406 47.808594 393.035156 68.785156 393.035156 94.652344 C 393.035156 120.523438 372.066406 141.496094 346.191406 141.496094 Z M 642.863281 344.480469 C 616.996094 344.480469 596.019531 323.507812 596.019531 297.636719 C 596.019531 271.769531 616.996094 250.792969 642.863281 250.792969 C 668.734375 250.792969 689.699219 271.769531 689.699219 297.636719 C 689.699219 323.507812 668.734375 344.480469 642.863281 344.480469 Z M 642.863281 344.480469 " style=" stroke:none;fill-rule:nonzero;fill:rgb(0%,0%,0%);fill-opacity:1;" />
</g>
</svg>