<svg height="496pt" viewBox="0 0 496 496" width="496pt" xmlns="http://www.w3.org/2000/svg"><path d="m488 448h-8v-24c0-4.425781-3.585938-8-8-8h-3.054688l-53.792968-107.574219c-.953125-1.898437-2.617188-3.347656-4.625-4.011719l-44.632813-14.871093-53.894531-123.207031v-70.335938h32v24c0 4.425781 3.585938 8 8 8h112c2.777344 0 5.34375-1.441406 6.808594-3.800781s1.589844-5.304688.351562-7.785157l-14.214844-28.414062 14.207032-28.425781c1.238281-2.476563 1.105468-5.421875-.351563-7.78125s-4.023437-3.792969-6.800781-3.792969h-56v-24c0-4.425781-3.585938-8-8-8h-88v-16h-16v16h-8c-4.414062 0-8 3.574219-8 8v64c0 4.425781 3.585938 8 8 8h8v67.472656l-36.121094 21.671875c-1.304687.785157-2.359375 1.917969-3.039062 3.28125l-15.359375 30.71875-1.894531-5.679687c-1.242188-3.730469-4.976563-6.015625-8.90625-5.359375l-48 8c-2.023438.335937-3.847657 1.445312-5.078126 3.09375l-46.007812 61.34375-52.722656 7.527343c-3.046875.441407-5.582032 2.59375-6.503906 5.539063l-38.246094 122.390625h-10.121094c-4.414062 0-8 3.574219-8 8v24h-8c-4.414062 0-8 3.574219-8 8v32c0 4.425781 3.585938 8 8 8h480c4.414062 0 8-3.574219 8-8v-32c0-4.425781-3.585938-8-8-8zm-80-360v-24h43.054688l-10.207032 20.425781c-1.128906 2.246094-1.128906 4.902344 0 7.160157l10.207032 20.414062h-91.054688v-16h40c4.414062 0 8-3.574219 8-8zm-112-56h96v48h-96zm-25.886719 165.664062 30.199219-18.128906 52.359375 119.664063c.902344 2.082031 2.648437 3.671875 4.800781 4.386719l44.855469 14.949218 48.726563 97.464844h-85.855469l-29.886719-67.246094c-.960938-2.167968-2.832031-3.792968-5.113281-4.449218l-51.941407-14.832032-29.617187-88.855468zm-183.984375 105.535157 51-7.277344c2.09375-.304687 4-1.425781 5.261719-3.128906l46.082031-61.433594 38.09375-6.351563 37.839844 113.511719c.832031 2.496094 2.851562 4.441407 5.394531 5.167969l52.40625 14.96875 25.480469 57.34375h-296.808594zm-54.128906 128.800781h432v16h-432zm448 48h-464v-16h464zm0 0"/><path d="m32 304c17.648438 0 32-14.351562 32-32 0-5.359375-1.449219-10.34375-3.792969-14.785156l66.351563-46.445313c5.035156 3.285157 11 5.230469 17.441406 5.230469 17.648438 0 32-14.351562 32-32 0-5.679688-1.609375-10.9375-4.214844-15.566406l43.488282-37.28125c4.886718 3.023437 10.574218 4.847656 16.726562 4.847656 17.648438 0 32-14.351562 32-32s-14.351562-32-32-32-32 14.351562-32 32c0 5.679688 1.609375 10.9375 4.214844 15.566406l-43.488282 37.28125c-4.886718-3.023437-10.574218-4.847656-16.726562-4.847656-17.648438 0-32 14.351562-32 32 0 5.359375 1.449219 10.34375 3.792969 14.785156l-66.351563 46.445313c-5.035156-3.285157-11-5.230469-17.441406-5.230469-17.648438 0-32 14.351562-32 32s14.351562 32 32 32zm200-216c8.824219 0 16 7.175781 16 16s-7.175781 16-16 16-16-7.175781-16-16 7.175781-16 16-16zm-88 80c8.824219 0 16 7.175781 16 16s-7.175781 16-16 16-16-7.175781-16-16 7.175781-16 16-16zm-112 88c8.824219 0 16 7.175781 16 16s-7.175781 16-16 16-16-7.175781-16-16 7.175781-16 16-16zm0 0"/><path d="m223.519531 269.265625c-1.398437-3.851563-5.511719-6.050781-9.464843-5.027344l-32 8 3.882812 15.515625 25-6.25 29.535156 81.222656c.695313 1.921876 2.113282 3.503907 3.941406 4.425782l32 16 7.160157-14.3125-29.148438-14.566406zm0 0"/></svg>