<svg height="496pt" viewBox="0 0 496 496" width="496pt" xmlns="http://www.w3.org/2000/svg"><path d="m56 80c13.230469 0 24-10.769531 24-24s-10.769531-24-24-24-24 10.769531-24 24 10.769531 24 24 24zm0-32c4.414062 0 8 3.59375 8 8s-3.585938 8-8 8-8-3.59375-8-8 3.585938-8 8-8zm0 0"/><path d="m120 80c13.230469 0 24-10.769531 24-24s-10.769531-24-24-24-24 10.769531-24 24 10.769531 24 24 24zm0-32c4.414062 0 8 3.59375 8 8s-3.585938 8-8 8-8-3.59375-8-8 3.585938-8 8-8zm0 0"/><path d="m184 80c13.230469 0 24-10.769531 24-24s-10.769531-24-24-24-24 10.769531-24 24 10.769531 24 24 24zm0-32c4.414062 0 8 3.59375 8 8s-3.585938 8-8 8-8-3.59375-8-8 3.585938-8 8-8zm0 0"/><path d="m472 240h-40v-232c0-4.414062-3.574219-8-8-8h-416c-4.425781 0-8 3.585938-8 8v480c0 4.414062 3.574219 8 8 8h416c4.425781 0 8-3.585938 8-8v-24h40c13.230469 0 24-10.769531 24-24v-176c0-13.230469-10.769531-24-24-24zm8 24v36.6875l-19.3125 19.3125h-265.375l-19.3125-19.3125v-36.6875c0-4.40625 3.585938-8 8-8h288c4.414062 0 8 3.59375 8 8zm-304 59.3125 10.34375 10.34375c1.496094 1.503906 3.527344 2.34375 5.65625 2.34375h16v16h-8c-4.425781 0-8 3.585938-8 8v32c0 4.414062 3.574219 8 8 8h8v48h-24c-4.414062 0-8-3.59375-8-8zm32 60.6875v-16h48v16zm16-32v-16h16v16zm0 48h16v48h-16zm32 0h8c4.425781 0 8-3.585938 8-8v-32c0-4.414062-3.574219-8-8-8h-8v-16h32v24c0 4.414062 3.574219 8 8 8h8v8c0 13.230469 10.769531 24 24 24s24-10.769531 24-24v-8h8c4.425781 0 8-3.585938 8-8v-24h32v16h-8c-4.425781 0-8 3.585938-8 8v32c0 4.414062 3.574219 8 8 8h8v48h-144zm64-32h16v8c0 4.40625-3.585938 8-8 8s-8-3.59375-8-8zm-16-16v-16h48v16zm112 48h16v48h-16zm-16-16v-16h48v16zm16-32v-16h16v16zm-32-112h-112v-24c0-13.230469 10.769531-24 24-24h64c13.230469 0 24 10.769531 24 24zm32-224v80h-400v-80zm0 464h-400v-368h400v128h-16v-24c0-22.054688-17.945312-40-40-40h-64c-22.054688 0-40 17.945312-40 40v24h-72c-13.230469 0-24 10.769531-24 24v176c0 13.230469 10.769531 24 24 24h232zm56-32h-24v-48h8c4.425781 0 8-3.585938 8-8v-32c0-4.414062-3.574219-8-8-8h-8v-16h16c2.128906 0 4.160156-.839844 5.65625-2.34375l10.34375-10.34375v116.6875c0 4.40625-3.585938 8-8 8zm0 0"/><path d="m32 128h208v16h-208zm0 0"/><path d="m32 160h208v16h-208zm0 0"/><path d="m32 192h208v16h-208zm0 0"/><path d="m32 224h112v16h-112zm0 0"/><path d="m32 256h112v16h-112zm0 0"/><path d="m32 288h112v16h-112zm0 0"/></svg>