<svg id="Capa_1" enable-background="new 0 0 491.996 491.996" height="512" viewBox="0 0 491.996 491.996" width="512" xmlns="http://www.w3.org/2000/svg"><path d="m401.58 274.595 29.592-4.179c3.281-.463 5.565-3.499 5.102-6.78-.289-2.048-1.613-3.802-3.502-4.643l-104.207-46.381c-.815-.359-1.699-.535-2.59-.516l-33.092.832-9.337-16.124v-37.156h61.52c6.588-.007 11.926-5.345 11.934-11.933v-14c-.019-8.513-6.025-15.838-14.369-17.527l-59.085-11.817v-68.7c0-19.701-15.971-35.671-35.671-35.671-19.701 0-35.671 15.97-35.671 35.671v68.7l-59.088 11.817c-8.343 1.688-14.347 9.012-14.366 17.524v14.003c.008 6.588 5.346 11.926 11.934 11.933h61.516v37.163l-8.435 14.651-40.16.143c-.835.003-1.66.18-2.422.52l-105.126 46.87c-3.027 1.348-4.388 4.895-3.041 7.922.841 1.888 2.594 3.211 4.641 3.5l36.63 5.172-36.24 54.22c-1.841 2.755-1.101 6.481 1.654 8.322.311.208.641.386.985.533l37.9 16.128v49.682c0 2.16 1.16 4.153 3.039 5.219l143.681 81.521c1.836 1.042 4.086 1.042 5.922 0l143.681-81.519c1.879-1.066 3.039-3.059 3.039-5.219v-49.681l37.9-16.128c3.049-1.298 4.469-4.821 3.172-7.87-.146-.344-.325-.674-.533-.985zm7.217-13.139-17.172 2.425-78.152-39.469 11.45-.288zm-160.529 65.576-130.161-56.531 73.708-38.277-6.143 10.671c-4.633 5.349-4.052 13.44 1.296 18.072 2.329 2.017 5.307 3.128 8.389 3.128.696 0 1.386-.121 2.04-.358l50.481-18.253 50.639 18.255c.652.236 1.34.356 2.034.356 7.075.001 12.811-5.735 12.812-12.81 0-3.084-1.112-6.065-3.133-8.395l-5.456-9.422 73.484 37.111zm-24.868-125.623c.524-.911.8-1.943.8-2.994v-62.568c0-3.314-2.686-6-6-6s-6 2.686-6 6v11.807l-61.454.061v-14.008c.006-2.796 1.978-5.202 4.719-5.756l63.912-12.782c2.805-.561 4.823-3.024 4.823-5.884v-73.619c.005-13.073 10.608-23.667 23.681-23.661 13.066.005 23.656 10.596 23.661 23.661v73.619c0 2.86 2.018 5.323 4.823 5.884l63.908 12.781c2.743.554 4.717 2.962 4.723 5.76l.066 13.938h-61.52v-11.8c0-3.314-2.686-6-6-6s-6 2.686-6 6v62.567c0 1.056.279 2.093.808 3.007l27.823 48.051c.261.45.579.864.947 1.232.257.219.33.586.176.887-.046.119-.117.226-.207.316l-51.179-18.451c-1.317-.476-2.758-.476-4.075 0l-51.021 18.448c-.089-.089-.16-.196-.206-.314-.154-.301-.081-.669.177-.888.371-.372.691-.79.953-1.245zm-58.487 22.191 17.585-.062-79.314 41.189-23.171-3.272zm-58.213 55.027 131.763 57.227-33.973 50.96-132.443-56.356zm3.892 81.271 93.78 39.907c2.656 1.13 5.74.209 7.341-2.193l30.56-45.839v123.922l-131.686-74.715zm275.361 41.082-131.685 74.715v-123.922l30.559 45.839c1.601 2.402 4.685 3.323 7.341 2.193l93.78-39.907zm-93.9-14.166-33.973-50.96 131.76-57.227 34.648 51.831z"/><path d="m275.005 263.381c-3.314 0-6 2.686-6 6v14.981c0 3.314 2.686 6 6 6s6-2.686 6-6v-14.981c0-3.314-2.687-6-6-6z"/><path d="m245.761 285.127c-3.314 0-6 2.686-6 6v16.63c-.005 3.314 2.677 6.004 5.99 6.01 3.314.005 6.004-2.677 6.01-5.99 0-.006 0-.013 0-.019v-16.63c0-3.315-2.687-6.001-6-6.001z"/><path d="m216.8 269.089c-3.314 0-6 2.686-6 6v13.267c0 3.314 2.686 6 6 6s6-2.686 6-6v-13.267c0-3.314-2.687-6-6-6z"/><path d="m239.655 70.43c4.297.001 7.781-3.483 7.782-7.78s-3.483-7.781-7.78-7.782-7.781 3.483-7.782 7.78v.001c.005 4.295 3.485 7.775 7.78 7.781z"/><path d="m239.655 106.035c4.297.001 7.781-3.483 7.782-7.78s-3.483-7.781-7.78-7.782-7.781 3.483-7.782 7.78v.002c.005 4.294 3.485 7.774 7.78 7.78z"/><path d="m239.655 141.64c4.297 0 7.78-3.483 7.78-7.78s-3.483-7.78-7.78-7.78c-4.296 0-7.779 3.483-7.78 7.779.005 4.295 3.485 7.775 7.78 7.781z"/><path d="m239.655 177.245c4.297.001 7.781-3.483 7.782-7.78s-3.483-7.781-7.78-7.782-7.781 3.483-7.782 7.78v.002c.005 4.294 3.485 7.775 7.78 7.78z"/></svg>