<svg height="496pt" viewBox="0 0 496 496" width="496pt" xmlns="http://www.w3.org/2000/svg"><g fill="#f0bc5e"><path d="m196.390625 73.078125-5.878906-5.878906c-17.542969-17.542969-40.855469-27.199219-65.664063-27.199219-51.191406 0-92.847656 41.65625-92.847656 92.847656v51.152344h8c0-17.671875 14.328125-32 32-32v8h14.703125c15.105469 0 28.519531-9.664062 33.296875-24l-8 24h6.703125c15.105469 0 28.519531-9.664062 33.296875-24l-8 24h6.703125c15.105469 0 28.519531-9.664062 33.296875-24v16c17.671875 0 32 14.328125 32 32h8v-70.703125c0-17.914063-11.015625-33.832031-27.609375-40.21875zm0 0"/><path d="m368 48c-52.9375 0-96 43.0625-96 96v40h8c0-17.671875 14.328125-32 32-32v8c10.246094 0 20.070312-4.070312 27.3125-11.3125l4.6875-4.6875c21.039062 10.519531 44.246094 16 67.777344 16h12.222656v-8c17.671875 0 32 14.328125 32 32h8v-40c0-52.9375-43.0625-96-96-96zm0 0"/><path d="m400 320-32-24-32 24 16 16-8 72 24 16 24-16-8-72zm0 0"/><path d="m160 320-32-24-32 24 16 16-8 72 24 16 24-16-8-72zm0 0"/></g><path d="m463.160156 275.351562-55.160156-10.03125v-15.441406c8.550781-6.871094 15.28125-15.886718 19.414062-26.222656 20.433594-1.769531 36.585938-18.769531 36.585938-39.65625 0-19.3125-13.769531-35.472656-32-39.191406v-16.808594h-16v24h-4.222656c-22.167969 0-44.371094-5.238281-64.191406-15.160156l-5.160157-2.574219-8.769531 8.765625c-3.777344 3.777344-8.550781 6.351562-13.65625 7.753906v-22.785156h-16v16.808594c-18.230469 3.71875-32 19.871094-32 39.191406 0 20.886719 16.152344 37.886719 36.585938 39.65625 4.125 10.34375 10.863281 19.351562 19.414062 26.222656v15.441406l-55.167969 10.03125c-10.296875 1.878907-18.960937 7.65625-24.839843 15.558594-5.878907-7.902344-14.542969-13.6875-24.839844-15.558594l-55.152344-10.03125v-15.441406c8.550781-6.871094 15.28125-15.886718 19.414062-26.222656 20.433594-1.769531 36.585938-18.769531 36.585938-39.65625 0-19.3125-13.769531-35.472656-32-39.191406v-16.808594h-16v6.449219c-3.800781 10.054687-13.105469 16.847656-23.808594 17.4375 3.152344-3.917969 5.730469-8.367188 7.394532-13.351563l-15.171876-5.0625c-3.542968 10.605469-13.167968 17.800782-24.214843 18.414063 3.152343-3.917969 5.730469-8.367188 7.394531-13.351563l-15.167969-5.0625c-3.714843 11.078125-14.042969 18.527344-25.722656 18.527344h-6.703125v-24h-16v16.808594c-18.230469 3.71875-32 19.878906-32 39.191406 0 20.886719 16.152344 37.886719 36.585938 39.65625 4.125 10.34375 10.863281 19.351562 19.414062 26.222656v15.441406l-55.167969 10.03125c-19.015625 3.472657-32.832031 20.015626-32.832031 39.351563v125.296875h496v-125.296875c0-19.335937-13.816406-35.878906-32.839844-39.351563zm-61.160156 5.144532 5.640625 1.023437-5.289063 31.710938-21.289062-17.03125zm46-96.496094c0 10.542969-6.878906 19.414062-16.34375 22.632812.222656-2.175781.34375-4.394531.34375-6.632812v-38.527344c9.289062 3.3125 16 12.113282 16 22.527344zm-160 0c0-10.414062 6.710938-19.214844 16-22.527344v38.527344c0 2.238281.121094 4.457031.34375 6.632812-9.464844-3.21875-16.34375-12.089843-16.34375-22.632812zm32 16v-32.742188c9.375-1.65625 18.191406-6.136718 24.96875-12.914062l.6875-.6875c20.679688 9.398438 43.414062 14.34375 66.121094 14.34375h4.222656v32c0 26.472656-21.527344 48-48 48s-48-21.527344-48-48zm48 64c8.488281 0 16.585938-1.695312 24-4.710938v8.710938l-24 18-24-18v-8.710938c7.414062 3.015626 15.511719 4.710938 24 4.710938zm-34 16.496094 20.9375 15.703125-21.289062 17.03125-5.289063-31.710938zm-172 0 5.640625 1.023437-5.289063 31.710938-21.289062-17.03125zm46-96.496094c0 10.542969-6.878906 19.414062-16.34375 22.632812.222656-2.175781.34375-4.394531.34375-6.632812v-38.527344c9.289062 3.3125 16 12.113282 16 22.527344zm-160 0c0-10.414062 6.710938-19.214844 16-22.527344v38.527344c0 2.238281.121094 4.457031.34375 6.632812-9.464844-3.21875-16.34375-12.089843-16.34375-22.632812zm32 16v-32h6.703125c9.328125 0 18.113281-2.992188 25.296875-8.199219v8.199219h6.703125c9.328125 0 18.113281-2.992188 25.296875-8.199219v8.199219h6.703125c9.328125 0 18.113281-2.992188 25.296875-8.199219v40.199219c0 26.472656-21.527344 48-48 48s-48-21.527344-48-48zm48 64c8.488281 0 16.585938-1.695312 24-4.710938v8.710938l-24 18-24-18v-8.710938c7.414062 3.015626 15.511719 4.710938 24 4.710938zm-34 16.496094 20.9375 15.703125-21.289062 17.03125-5.289063-31.710938zm-78 34.207031c0-11.597656 8.289062-21.527344 19.703125-23.613281l36.921875-6.707032 9.726562 58.386719 45.648438-36.523437 45.648438 36.523437 9.726562-58.386719 36.914062 6.707032c11.421876 2.078125 19.710938 12.015625 19.710938 23.613281v32.761719l10-2.585938c2.320312-.597656 4.222656-.878906 6-.878906 13.230469 0 24 10.769531 24 24s-10.769531 24-24 24c-1.777344 0-3.679688-.28125-6-.871094l-10-2.59375v35.464844h-224zm464 109.296875h-224v-16c22.054688 0 40-17.945312 40-40s-17.945312-40-40-40v-13.296875c0-11.597656 8.289062-21.527344 19.703125-23.613281l36.921875-6.707032 9.726562 58.386719 45.648438-36.523437 45.648438 36.523437 9.726562-58.386719 36.914062 6.707032c11.421876 2.078125 19.710938 12.015625 19.710938 23.613281zm0 0"/><path d="m0 480h16v16h-16zm0 0"/><path d="m32 480h16v16h-16zm0 0"/><path d="m64 480h16v16h-16zm0 0"/><path d="m241.601562 460.800781 14.398438 19.199219h-160v16h192l-33.601562-44.800781zm0 0"/><path d="m480 0h16v16h-16zm0 0"/><path d="m448 0h16v16h-16zm0 0"/><path d="m416 0h16v16h-16zm0 0"/><path d="m254.398438 35.199219-14.398438-19.199219h160v-16h-192l33.601562 44.800781zm0 0"/></svg>