<svg height="512pt" viewBox="-45 0 511 512" width="512pt" xmlns="http://www.w3.org/2000/svg"><path d="m170.472656 211.453125h130.269532c4.171874 0 7.554687-3.382813 7.554687-7.554687 0-4.175782-3.382813-7.558594-7.554687-7.558594h-130.269532c-4.175781 0-7.558594 3.382812-7.558594 7.558594 0 4.171874 3.382813 7.554687 7.558594 7.554687zm0 0"/><path d="m337.953125 160.007812h-167.480469c-4.175781 0-7.558594 3.382813-7.558594 7.558594 0 4.171875 3.382813 7.554688 7.558594 7.554688h167.480469c4.175781 0 7.558594-3.382813 7.558594-7.554688 0-4.175781-3.382813-7.558594-7.558594-7.558594zm0 0"/><path d="m137.738281 153.070312c-3.105469-2.785156-7.882812-2.53125-10.671875.578126l-35.460937 39.496093-15.351563-14.183593c-3.066406-2.832032-7.847656-2.640626-10.679687.425781-2.832031 3.066406-2.644531 7.847656.421875 10.679687l20.984375 19.382813c1.402343 1.292969 3.234375 2.003906 5.128906 2.003906.117187 0 .234375 0 .355469-.007813 2.019531-.09375 3.917968-.992187 5.269531-2.5l40.582031-45.199218c2.785156-3.109375 2.53125-7.886719-.578125-10.675782zm0 0"/><path d="m137.738281 225.761719c-3.105469-2.785157-7.882812-2.53125-10.671875.578125l-34.851562 38.820312-11.15625-12.898437c-2.730469-3.15625-7.5-3.503907-10.660156-.773438-3.15625 2.730469-3.5 7.503907-.769532 10.660157l16.765625 19.386718c1.417969 1.640625 3.472657 2.59375 5.644531 2.613282h.070313c2.144531 0 4.1875-.914063 5.625-2.511719l40.582031-45.199219c2.785156-3.109375 2.53125-7.886719-.578125-10.675781zm0 0"/><path d="m170.472656 284.144531h130.269532c4.171874 0 7.554687-3.382812 7.554687-7.554687 0-4.175782-3.382813-7.558594-7.554687-7.558594h-130.269532c-4.175781 0-7.558594 3.382812-7.558594 7.558594 0 4.171875 3.382813 7.554687 7.558594 7.554687zm0 0"/><path d="m345.511719 240.257812c0-4.175781-3.386719-7.558593-7.558594-7.558593h-65.21875c-4.175781 0-7.558594 3.382812-7.558594 7.558593 0 4.171876 3.382813 7.554688 7.558594 7.554688h65.21875c4.175781 0 7.558594-3.382812 7.558594-7.554688zm0 0"/><path d="m170.472656 247.8125h67.65625c4.171875 0 7.554688-3.382812 7.554688-7.554688 0-4.175781-3.382813-7.558593-7.554688-7.558593h-67.65625c-4.175781 0-7.558594 3.382812-7.558594 7.558593 0 4.171876 3.382813 7.554688 7.558594 7.554688zm0 0"/><path d="m421.472656 113.582031c.007813-.125.019532-.246093.019532-.375 0-.246093-.015626-.488281-.039063-.730469-.398437-22.160156-3.207031-30.691406-21.976563-51.085937l-32.773437-35.660156c-1.871094-2.03125-3.546875-3.898438-5.089844-5.613281-13.734375-15.28125-19.226562-20.117188-43.3125-20.117188h-285.011719c-18.078124 0-32.789062 14.71875-32.789062 32.808594v180.328125c0 4.171875 3.382812 7.554687 7.558594 7.554687 4.171875 0 7.554687-3.382812 7.554687-7.554687v-180.328125c0-9.757813 7.929688-17.695313 17.675781-17.695313h277.449219l-.023437 72.828125c-.019532 8.730469 3.386718 16.960938 9.585937 23.175782 6.210938 6.222656 14.449219 9.648437 23.203125 9.648437h62.902344v1.199219 357.226562c0 9.757813-7.929688 17.695313-17.675781 17.695313h-355.441407c-9.746093 0-17.675781-7.9375-17.675781-17.695313v-231.425781c0-4.171875-3.382812-7.554687-7.554687-7.554687-4.175782 0-7.558594 3.382812-7.558594 7.554687v231.425781c0 18.089844 14.710938 32.808594 32.789062 32.808594h355.441407c18.082031 0 32.789062-14.71875 32.789062-32.808594v-357.226562c0-3.007813-.007812-5.78125-.046875-8.382813zm-77.96875-7.929687c-4.710937 0-9.152344-1.851563-12.503906-5.210938-3.34375-3.351562-5.179688-7.78125-5.171875-12.480468l.027344-72.664063c11.75.71875 14.589843 3.878906 24.519531 14.925781 1.578125 1.753906 3.296875 3.667969 5.210938 5.742188l32.765624 35.65625c13.550782 14.722656 16.929688 20.703125 17.773438 34.027344h-62.621094zm0 0"/><path d="m284.203125 351.40625c-1.191406.679688-2.210937 1.585938-2.976563 2.722656-.761718 1.132813-1.359374 2.40625-1.867187 3.683594-.425781 1.160156-.878906 2.296875-1.332031 3.429688l-13.054688 33.15625c-.425781 1.078124-.851562 2.15625-1.1875 3.257812-.285156.878906-.425781 1.785156-.425781 2.722656 0 1.785156.765625 3.34375 2.066406 4.589844 1.304688 1.25 2.917969 1.929688 4.730469 1.929688 1.867188 0 3.652344-.539063 4.8125-2.097657 1.105469-1.476562 2.039062-3.882812 2.691406-5.640625l1.980469-5.328125h18.152344l2.011719 5.242188v.027343c.394531.9375.792968 1.871094 1.1875 2.777344.425781.90625.90625 1.929688 1.503906 2.691406.59375.710938 1.273437 1.277344 2.09375 1.703126.90625.453124 1.925781.621093 2.945312.621093 1.871094 0 3.570313-.679687 4.898438-2.011719 1.246094-1.246093 2.011718-2.804687 2.011718-4.589843 0-1.898438-.992187-4.449219-1.699218-6.179688l-13.335938-32.957031c-.480468-1.304688-1.019531-2.636719-1.558594-3.96875-.453124-1.078125-1.019531-2.152344-1.699218-3.117188-.765625-1.105468-1.753906-2.011718-2.917969-2.664062-1.386719-.792969-2.972656-1.078125-4.558594-1.078125-1.558593 0-3.113281.285156-4.472656 1.078125zm9.429687 30.917969h-9.910156l4.925782-13.6875zm0 0"/><path d="m222.640625 382.269531c0 37.261719 30.308594 67.582031 67.566406 67.582031 37.238281 0 67.539063-30.316406 67.539063-67.582031 0-37.28125-30.300782-67.609375-67.539063-67.609375-37.257812 0-67.566406 30.328125-67.566406 67.609375zm119.988281 0c0 28.929688-23.515625 52.464844-52.421875 52.464844-28.925781 0-52.453125-23.535156-52.453125-52.464844 0-28.945312 23.53125-52.496093 52.453125-52.496093 28.90625 0 52.421875 23.550781 52.421875 52.496093zm0 0"/></svg>