<svg height="512pt" viewBox="-16 0 512 512.001" width="512pt" xmlns="http://www.w3.org/2000/svg"><path d="m33.363281 422.105469h61.453125c4.144532 0 7.5-3.359375 7.5-7.5 0-4.144531-3.355468-7.5-7.5-7.5h-61.453125c-4.144531 0-7.5 3.355469-7.5 7.5 0 4.140625 3.355469 7.5 7.5 7.5zm0 0"/><path d="m33.363281 450.800781h61.453125c4.144532 0 7.5-3.355469 7.5-7.5s-3.355468-7.5-7.5-7.5h-61.453125c-4.144531 0-7.5 3.355469-7.5 7.5s3.355469 7.5 7.5 7.5zm0 0"/><path d="m33.363281 479.5h61.453125c4.144532 0 7.5-3.359375 7.5-7.5 0-4.144531-3.355468-7.5-7.5-7.5h-61.453125c-4.144531 0-7.5 3.355469-7.5 7.5 0 4.140625 3.355469 7.5 7.5 7.5zm0 0"/><path d="m209.265625 422.105469h61.457031c4.140625 0 7.5-3.359375 7.5-7.5 0-4.144531-3.359375-7.5-7.5-7.5h-61.457031c-4.140625 0-7.5 3.355469-7.5 7.5 0 4.140625 3.359375 7.5 7.5 7.5zm0 0"/><path d="m209.265625 450.800781h61.457031c4.140625 0 7.5-3.355469 7.5-7.5s-3.359375-7.5-7.5-7.5h-61.457031c-4.140625 0-7.5 3.355469-7.5 7.5s3.359375 7.5 7.5 7.5zm0 0"/><path d="m209.265625 479.5h61.457031c4.140625 0 7.5-3.359375 7.5-7.5 0-4.144531-3.359375-7.5-7.5-7.5h-61.457031c-4.140625 0-7.5 3.355469-7.5 7.5 0 4.140625 3.359375 7.5 7.5 7.5zm0 0"/><path d="m385.171875 422.105469h61.453125c4.144531 0 7.5-3.359375 7.5-7.5 0-4.144531-3.355469-7.5-7.5-7.5h-61.453125c-4.140625 0-7.5 3.355469-7.5 7.5 0 4.140625 3.359375 7.5 7.5 7.5zm0 0"/><path d="m385.171875 450.800781h61.453125c4.144531 0 7.5-3.355469 7.5-7.5s-3.355469-7.5-7.5-7.5h-61.453125c-4.140625 0-7.5 3.355469-7.5 7.5s3.359375 7.5 7.5 7.5zm0 0"/><path d="m385.171875 479.5h61.453125c4.144531 0 7.5-3.359375 7.5-7.5 0-4.144531-3.355469-7.5-7.5-7.5h-61.453125c-4.140625 0-7.5 3.355469-7.5 7.5 0 4.140625 3.359375 7.5 7.5 7.5zm0 0"/><path d="m371.308594 374.601562c-10.75 0-19.5 8.75-19.5 19.503907v98.394531c0 10.753906 8.75 19.5 19.5 19.5h89.179687c10.75 0 19.5-8.746094 19.5-19.5v-98.394531c0-10.753907-8.75-19.503907-19.5-19.503907h-37.089843v-24.410156c0-8.757812-7.125-15.882812-15.882813-15.882812h-160.019531v-25.695313h96.554687c10.191407 0 18.484375-8.292969 18.484375-18.484375v-16.238281c0-4.144531-3.355468-7.5-7.5-7.5-4.140625 0-7.5 3.355469-7.5 7.5v16.238281c0 1.917969-1.5625 3.480469-3.484375 3.480469h-22.53125v-49.636719c0-4.140625-3.355469-7.5-7.5-7.5s-7.5 3.359375-7.5 7.5v49.636719h-130.683593v-49.636719c0-4.140625-3.355469-7.5-7.5-7.5-4.140626 0-7.5 3.359375-7.5 7.5v49.636719h-22.53125c-1.921876 0-3.484376-1.5625-3.484376-3.480469v-55.597656c0-14.253906 8.675782-25.761719 19.414063-30.429688l47.25-18.316406 3.074219 3.261719c9.570312 10.171875 22.378906 15.773437 36.0625 15.773437s26.492187-5.601562 36.066406-15.773437l3.355469-3.566406c53.761719 20.824219 67.492187 20.671875 67.492187 53.40625 0 4.144531 3.359375 7.5 7.5 7.5 4.144532 0 7.503906-3.355469 7.503906-7.5v-4.355469c0-32.128906-27.578124-43.835938-28.75-44.320312-.046874-.019532-.097656-.039063-.144531-.054688l-52.894531-20.484375h-.003906l-7.472656-2.894531v-11.789063c9.371093-7.628906 15.972656-18.527343 18.0625-30.9375 12.691406-1.871093 21.070312-12.386719 21.070312-24.089843 0-5.578126-1.914062-10.917969-5.339844-15.1875v-18.328126c0-36.636718-29.808594-66.445312-66.445312-66.445312-36.636719 0-66.445313 29.808594-66.445313 66.445312v18.808594c-3.464843 4.214844-5.335937 9.3125-5.335937 14.710938 0 11.914062 8.660156 22.324218 21.054687 24.113281 2.144531 12.921875 9.117188 24.058594 19.117188 31.660156v11.035157c-34.007813 13.1875-26 10.082031-60.304688 23.378906-.046875.019531-.09375.039062-.140625.058594-1.171875.480468-28.746094 12.1875-28.746094 44.316406v55.597656c0 10.191406 8.289063 18.484375 18.480469 18.484375h94.195313v25.699219h-160.023438c-8.757812 0-15.882812 7.125-15.882812 15.882812v24.410156h-37.089844c-10.75 0-19.5 8.746094-19.5 19.5v98.394532c0 10.753906 8.75 19.503906 19.5 19.503906h89.179688c10.75 0 19.5-8.75 19.5-19.503906v-98.394532c0-10.753906-8.75-19.5-19.5-19.5h-37.089844v-24.410156c0-.484375.398437-.882812.882812-.882812h160.023438v25.292968h-37.089844c-10.753906 0-19.5 8.746094-19.5 19.5v98.394532c0 10.753906 8.746094 19.503906 19.5 19.503906h27.085938c4.144531 0 7.503906-3.359375 7.503906-7.5 0-4.144531-3.359375-7.5-7.503906-7.5h-27.085938c-2.4375 0-4.5-2.0625-4.5-4.503906v-98.394532c0-2.4375 2.0625-4.5 4.5-4.5h89.175781c2.441407 0 4.5 2.0625 4.5 4.5v98.394532c0 2.441406-2.058593 4.503906-4.5 4.503906h-27.085937c-4.144532 0-7.5 3.355469-7.5 7.5 0 4.140625 3.355468 7.5 7.5 7.5h27.085937c10.753907 0 19.5-8.75 19.5-19.503906v-98.394532c0-10.753906-8.746093-19.5-19.5-19.5h-37.085937v-25.292968h160.019531c.488281 0 .882813.394531.882813.882812v24.410156zm-79.253906-266.222656v-16.8125c3.40625 1.621094 5.351562 4.914063 5.351562 8.398438 0 3.550781-2.011719 6.835937-5.351562 8.414062zm-102.878907-41.933594c0-28.367187 23.078125-51.445312 51.445313-51.445312 28.367187 0 51.445312 23.078125 51.445312 51.445312v9.519532c-.023437-.003906-.046875-.007813-.070312-.011719-.179688-1.761719-.613282-3.230469-2.996094-6.121094-2.054688-2.488281-5.484375-6.011719-13.855469-15.011719-.003906 0-.003906 0-.003906 0-3.796875-4.078124-10.003906-4.882812-14.726563-1.796874-17.609374 11.503906-39.070312 17.285156-58.851562 15.863281-4.980469-.382813-9.636719 2.523437-11.527344 7.15625-.289062.050781-.574218.105469-.859375.164062zm-5.335937 33.519532c0-3.453125 2.300781-6.324219 5.347656-7.945313v16.359375c-3.34375-1.578125-5.347656-4.867187-5.347656-8.414062zm20.351562 15.621094v-31.542969c20.09375.65625 42.484375-4.898438 61.945313-16.886719 5.636719 6.046875 9.304687 9.894531 10.917969 11.730469v36.710937c-.035157 19.476563-15.835938 35.789063-35.800782 35.792969h-.003906c-22.03125 0-37.058594-16.96875-37.058594-35.804687zm37.050782 50.804687h.007812c5.542969 0 11.488281-.960937 17.019531-2.9375v4.4375c0 4.8125 2.652344 9.261719 6.757813 11.613281-6.617188 6.652344-15.242188 10.3125-24.410156 10.3125-9.003907 0-17.492188-3.53125-24.066407-9.964844 4.511719-2.316406 7.460938-7.039062 7.460938-12.171874v-4c5.621093 1.84375 11.628906 2.710937 17.230469 2.710937zm-128.0625 227.714844v98.394531c0 2.4375-2.0625 4.5-4.5 4.5h-89.179688c-2.4375 0-4.5-2.0625-4.5-4.5v-98.394531c0-2.441407 2.0625-4.5 4.5-4.5h89.179688c2.4375 0 4.5 2.058593 4.5 4.5zm351.808593 0v98.394531c0 2.4375-2.0625 4.5-4.5 4.5h-89.179687c-2.4375 0-4.5-2.0625-4.5-4.5v-98.394531c0-2.441407 2.0625-4.5 4.5-4.5h89.179687c2.4375 0 4.5 2.058593 4.5 4.5zm0 0"/></svg>