<?xml version="1.0" encoding="iso-8859-1"?>
<!-- Generator: Adobe Illustrator 19.0.0, SVG Export Plug-In . SVG Version: 6.00 Build 0)  -->
<svg xmlns="http://www.w3.org/2000/svg" xmlns:xlink="http://www.w3.org/1999/xlink" version="1.1" id="Layer_1" x="0px" y="0px" viewBox="0 0 512 512" style="enable-background:new 0 0 512 512;" xml:space="preserve" width="512" height="512">
<g id="XMLID_936_">
	<g id="XMLID_1046_">
		<path id="XMLID_1804_" d="M501.965,40h-89.027V10c0-5.522-4.477-10-10-10h-48c-5.523,0-10,4.478-10,10v30h-89.334    c-5.523,0-10,4.478-10,10v72.939l-6.969-6.987c-12.488-12.521-27.959-20.961-44.809-24.712    c7.926-9.093,12.742-20.962,12.742-33.943v-5.564C206.568,23.207,183.361,0,154.835,0s-51.733,23.207-51.733,51.732v5.564    c0,13.479,5.186,25.766,13.662,34.983c-20.751,5.9-38.974,19.512-50.298,38.387L4.227,234.406    c-6.343,10.571-5.417,24.131,2.303,33.742c5.663,7.05,14.03,11.055,23.041,11.055c0.218,0,0.437-0.002,0.656-0.007    c9.26-0.199,17.717-4.595,23.201-12.059L92.835,213.5v40.954c0,0.282,0.019,0.56,0.042,0.836    c-0.023,0.276-0.042,0.554-0.042,0.836V347c0,5.522,4.477,10,10,10s10-4.478,10-10v-82.546h84V476c0,8.822-7.178,16-16,16    s-16-7.178-16-16V328.585c0-5.522-4.477-10-10-10s-10,4.478-10,10V476c0,8.822-7.178,16-16,16s-16-7.178-16-16v-49    c0-5.522-4.477-10-10-10s-10,4.478-10,10v49c0,19.851,16.149,36,36,36c10.214,0,19.442-4.283,26-11.139    c6.558,6.856,15.786,11.139,26,11.139c19.851,0,36-16.149,36-36V256.127c0-0.282-0.019-0.56-0.042-0.836    c0.023-0.276,0.042-0.554,0.042-0.836v-67.469l17.117,17.21c3.467,3.487,7.422,6.221,11.652,8.211V330    c0,0.837,0.114,1.645,0.308,2.421V370c0,5.522,4.477,10,10,10h13.397l-23.518,120.078c-0.575,2.933,0.193,5.97,2.093,8.277    s4.732,3.645,7.721,3.645h44.506c4.782,0,8.895-3.386,9.813-8.078L334.194,380h89l24.271,123.922    c0.919,4.692,5.032,8.078,9.813,8.078h44.506c2.989,0,5.821-1.337,7.721-3.645s2.667-5.345,2.093-8.277L488.08,380h13.885    c5.523,0,10-4.478,10-10v-40V50C511.965,44.478,507.488,40,501.965,40z M364.938,20h28v20h-28V20z M265.604,142V60h89.334h48    h89.027v260H265.604V216.284c8.916-0.501,17.718-3.869,24.891-10.158l26.303-23.063c6.296-5.521,10.053-13.487,10.307-21.857    c0.254-8.371-3.013-16.551-8.963-22.443c-10.657-10.553-27.165-11.768-39.251-2.889l-11.764,8.644l-1.57-1.574    C265.585,142.633,265.604,142.318,265.604,142z M123.103,51.732c0-17.497,14.235-31.732,31.733-31.732    s31.733,14.235,31.733,31.732v5.564c0,17.292-13.904,31.387-31.117,31.718h-1.231c-17.214-0.331-31.117-14.426-31.117-31.718    V51.732z M213.926,155.698c-2.856-2.871-7.161-3.737-10.905-2.192c-3.743,1.545-6.186,5.194-6.186,9.244v81.704h-84V183    c0-4.322-2.777-8.155-6.884-9.502c-4.107-1.35-8.615,0.099-11.174,3.581L37.31,255.296c-1.776,2.417-4.515,3.841-7.514,3.905    c-3.014,0.06-5.796-1.24-7.674-3.578c-2.5-3.112-2.8-7.503-0.746-10.927l62.24-103.74c11.821-19.702,33.438-31.941,56.415-31.941    h4.805V142c0,5.522,4.477,10,10,10s10-4.478,10-10v-32.985h8.887c19.182,0,37.206,7.479,50.752,21.061l34.563,34.653    c3.491,3.501,9.017,3.926,13.001,0.997l18.693-13.734c4.106-3.017,9.715-2.604,13.336,0.982c2.051,2.031,3.133,4.739,3.045,7.625    c-0.088,2.886-1.332,5.523-3.502,7.427l-26.303,23.063c-8.443,7.403-21.258,6.964-29.176-0.996L213.926,155.698z M291.879,492    h-24.126l21.936-112h24.126L291.879,492z M489.636,492H465.51l-21.936-112H467.7L489.636,492z M491.965,360H265.912v-20h226.053    V360z"/>
		<path id="XMLID_1817_" d="M453.785,160h-48c-5.523,0-10,4.478-10,10v16.575h-38c-5.523,0-10,4.478-10,10v23.101h-38    c-5.523,0-10,4.478-10,10v49.061c0,5.522,4.477,10,10,10h48h48h48c5.523,0,10-4.478,10-10V170    C463.785,164.478,459.308,160,453.785,160z M319.785,239.676h28v29.061h-28V239.676z M367.785,229.676v-23.101h28v62.161h-28    V229.676z M443.785,268.736h-28v-72.161V180h28V268.736z"/>
		<path id="XMLID_1868_" d="M309.789,100c2.63,0,5.21-1.07,7.07-2.931c1.86-1.859,2.92-4.439,2.92-7.069s-1.06-5.21-2.92-7.07    c-1.86-1.86-4.44-2.93-7.07-2.93c-2.64,0-5.22,1.069-7.08,2.93s-2.92,4.44-2.92,7.07s1.06,5.21,2.92,7.069    C304.569,98.93,307.149,100,309.789,100z"/>
		<path id="XMLID_1869_" d="M349.785,100h104c5.523,0,10-4.478,10-10s-4.477-10-10-10h-104c-5.523,0-10,4.478-10,10    S344.262,100,349.785,100z"/>
		<path id="XMLID_1870_" d="M453.785,120h-90.5c-5.523,0-10,4.478-10,10s4.477,10,10,10h90.5c5.523,0,10-4.478,10-10    S459.308,120,453.785,120z"/>
		<path id="XMLID_1871_" d="M102.839,397c2.63,0,5.2-1.07,7.07-2.931c1.86-1.859,2.93-4.439,2.93-7.069s-1.07-5.21-2.93-7.07    c-1.86-1.86-4.44-2.93-7.07-2.93c-2.64,0-5.21,1.069-7.07,2.93c-1.87,1.86-2.93,4.44-2.93,7.07s1.06,5.21,2.93,7.069    C97.629,395.93,100.209,397,102.839,397z"/>
	</g>
</g>















</svg>
