<svg id="Layer_1_1_" enable-background="new 0 0 96 96" height="512" viewBox="0 0 96 96" width="512" xmlns="http://www.w3.org/2000/svg"><circle cx="7" cy="19" r="1"/><path d="m53 30c1.654 0 3-1.346 3-3s-1.346-3-3-3-3 1.346-3 3 1.346 3 3 3zm0-4c.552 0 1 .449 1 1s-.448 1-1 1-1-.449-1-1 .448-1 1-1z"/><path d="m93 64h-8c-.553 0-1 .448-1 1v1h-2.586l-1.707-1.707c-.187-.188-.441-.293-.707-.293-1.654 0-3-1.346-3-3v-6c0-2.757-2.243-5-5-5s-5 2.243-5 5v9h-9.586l-8.414-8.414v-10.055l3.97.992c1.863.466 3.754.692 5.631.692 6.934 0 13.679-3.088 18.174-8.582.325-.397.296-.977-.067-1.34l-27-27c-.188-.188-.442-.293-.708-.293h-10v-7c0-.552-.447-1-1-1-6.28 0-11.438 4.851-11.949 11h-7.051c-.266 0-.52.105-.707.293l-2.707 2.707h-2.586v-1c0-.552-.447-1-1-1h-8c-.553 0-1 .448-1 1v28c0 .552.447 1 1 1h8c.553 0 1-.448 1-1v-.382l2.553 1.276c.138.07.292.106.447.106h8c.553 0 1-.448 1-1s-.447-1-1-1h-7.764l-3.789-1.895c-.31-.154-.679-.138-.973.044-.294.183-.474.504-.474.851v1h-6v-26h6v21c0 .552.447 1 1 1s1-.448 1-1v-19h3c.266 0 .52-.105.707-.293l2.707-2.707h6.586v3h-1c-.553 0-1 .448-1 1s.447 1 1 1h18c1.103 0 2 .897 2 2s-.897 2-2 2h-14c-.553 0-1 .448-1 1s.447 1 1 1h14c1.103 0 2 .897 2 2s-.897 2-2 2h-14c-.553 0-1 .448-1 1s.447 1 1 1h14c1.103 0 2 .897 2 2s-.897 2-2 2h-14c-.553 0-1 .448-1 1s.447 1 1 1h14c1.103 0 2 .897 2 2s-.897 2-2 2h-15c-.553 0-1 .448-1 1v8.858c0 8.853-3.447 17.176-9.707 23.435-.188.187-.293.442-.293.707v4h-6c-.553 0-1 .448-1 1v4c0 .552.447 1 1 1 .552 0 1 .449 1 1s-.448 1-1 1c-.553 0-1 .448-1 1v4c0 .552.447 1 1 1h71c.155 0 .309-.036.447-.105l2.553-1.277v.382c0 .552.447 1 1 1h8c.553 0 1-.448 1-1v-28c0-.552-.447-1-1-1zm-51-46h-15v-4c0-5.176 3.954-9.447 9-9.95v6.95c0 .552.447 1 1 1h10.586l26.054 26.054c-5.262 5.898-13.476 8.456-21.186 6.529l-7.523-1.881c.658-.713 1.069-1.658 1.069-2.702 0-1.2-.542-2.266-1.382-3 .84-.734 1.382-1.8 1.382-3s-.542-2.266-1.382-3c.84-.734 1.382-1.8 1.382-3s-.542-2.266-1.382-3c.84-.734 1.382-1.8 1.382-3 0-2.206-1.794-4-4-4zm9.706 61c-.36.288-.687.616-.945 1h-29.761c-.553 0-1 .448-1 1s.447 1 1 1h29.051c-.019.166-.051.329-.051.5 0 1.421.675 2.675 1.706 3.5-1.031.825-1.706 2.079-1.706 3.5 0 .925.282 1.784.762 2.5h-39.762v-2.171c1.164-.413 2-1.525 2-2.829s-.836-2.416-2-2.829v-2.171h6c.553 0 1-.448 1-1v-4.589c6.452-6.602 10-15.305 10-24.553v-7.858h13.877l4.123 1.031v10.969c0 .265.105.52.293.707l7.377 7.377c-2.085.391-3.67 2.219-3.67 4.416 0 1.421.675 2.675 1.706 3.5-1.031.825-1.706 2.079-1.706 3.5s.675 2.675 1.706 3.5zm9.794 13h-7c-1.379 0-2.5-1.122-2.5-2.5s1.121-2.5 2.5-2.5h7c1.379 0 2.5 1.122 2.5 2.5s-1.121 2.5-2.5 2.5zm0-7h-7c-1.379 0-2.5-1.122-2.5-2.5s1.121-2.5 2.5-2.5h7c1.379 0 2.5 1.122 2.5 2.5s-1.121 2.5-2.5 2.5zm0-7h-7c-1.379 0-2.5-1.122-2.5-2.5s1.121-2.5 2.5-2.5h7c1.379 0 2.5 1.122 2.5 2.5s-1.121 2.5-2.5 2.5zm0-7h-7c-1.379 0-2.5-1.122-2.5-2.5s1.121-2.5 2.5-2.5h7c1.379 0 2.5 1.122 2.5 2.5s-1.121 2.5-2.5 2.5zm30.5 21h-6v-1c0-.347-.18-.668-.475-.851s-.663-.199-.973-.044l-3.788 1.895h-15.526c.48-.716.762-1.575.762-2.5 0-1.421-.675-2.675-1.706-3.5 1.031-.825 1.706-2.079 1.706-3.5s-.675-2.675-1.706-3.5c1.031-.825 1.706-2.079 1.706-3.5s-.675-2.675-1.706-3.5c1.031-.825 1.706-2.079 1.706-3.5 0-.925-.282-1.784-.762-2.5h1.762c.553 0 1-.448 1-1v-10c0-1.654 1.346-3 3-3s3 1.346 3 3v6c0 2.611 2.012 4.761 4.567 4.981l1.726 1.726c.187.188.441.293.707.293h3v19c0 .552.447 1 1 1s1-.448 1-1v-21h6z"/><circle cx="89" cy="69" r="1"/><path d="m93 10c-3.859 0-7-3.14-7-7 0-.552-.447-1-1-1s-1 .448-1 1c0 3.86-3.141 7-7 7-.553 0-1 .448-1 1s.447 1 1 1c3.859 0 7 3.14 7 7 0 .552.447 1 1 1s1-.448 1-1c0-3.86 3.141-7 7-7 .553 0 1-.448 1-1s-.447-1-1-1zm-8 4.879c-.858-1.66-2.219-3.021-3.879-3.879 1.66-.858 3.021-2.219 3.879-3.879.858 1.66 2.219 3.021 3.879 3.879-1.66.858-3.021 2.219-3.879 3.879z"/><circle cx="47" cy="77" r="1"/><circle cx="43" cy="77" r="1"/><circle cx="39" cy="77" r="1"/><circle cx="79" cy="28" r="1"/><circle cx="75" cy="28" r="1"/><circle cx="64" cy="17" r="1"/><circle cx="55" cy="6" r="1"/><path d="m15 87c0 .552.447 1 1 1h31c.553 0 1-.448 1-1s-.447-1-1-1h-31c-.553 0-1 .448-1 1z"/><path d="m93 27h-10c-.553 0-1 .448-1 1s.447 1 1 1h10c.553 0 1-.448 1-1s-.447-1-1-1z"/><path d="m67 17c0 .552.447 1 1 1h11c.553 0 1-.448 1-1s-.447-1-1-1h-11c-.553 0-1 .448-1 1z"/><path d="m75 7c.553 0 1-.448 1-1s-.447-1-1-1h-5c-.553 0-1 .448-1 1s.447 1 1 1z"/><path d="m66 5h-7c-.553 0-1 .448-1 1s.447 1 1 1h7c.553 0 1-.448 1-1s-.447-1-1-1z"/></svg>