<svg id="Layer_5" enable-background="new 0 0 64 64" height="512" viewBox="0 0 64 64" width="512" xmlns="http://www.w3.org/2000/svg"><path d="m22 42c1.654 0 3-1.346 3-3s-1.346-3-3-3-3 1.346-3 3 1.346 3 3 3zm0-4c.552 0 1 .448 1 1s-.448 1-1 1-1-.448-1-1 .448-1 1-1z"/><path d="m34.798 24.146c.609.222 1.213.46 1.812.714l.781-1.842c-.63-.268-1.267-.518-1.909-.751z"/><path d="m27.251 22.306c.645.086 1.286.188 1.923.307l.367-1.967c-.672-.125-1.347-.232-2.026-.322z"/><path d="m31.076 23.021c.63.153 1.256.324 1.876.513l.58-1.914c-.655-.198-1.316-.379-1.981-.542z"/><path d="m37.392 8.98-.783-1.84c-3.106 1.321-6.38 2.195-9.729 2.6l.24 1.986c3.535-.426 6.991-1.35 10.272-2.746z"/><path d="m25.066 11.918-.133-1.996c-.646.043-1.295.067-1.945.075l.023 2c.688-.008 1.372-.034 2.055-.079z"/><path d="m53 49c.552 0 1 .448 1 1h2c0-1.654-1.346-3-3-3v-2h-2v2h-3v3c0 1.654 1.346 3 3 3h2c.552 0 1 .448 1 1v1h-3c-.552 0-1-.448-1-1h-2c0 1.654 1.346 3 3 3v2h2v-2h3v-3c0-1.654-1.346-3-3-3h-2c-.552 0-1-.448-1-1v-1z"/><path d="m52 41c-5.988 0-10.864 4.811-10.988 10.769l-1.275-1.275 1.147-7.642c1.221-.38 2.116-1.507 2.116-2.852v-2c0-1.654-1.346-3-3-3h-12.264c-.221-.316-.467-.614-.736-.889v-7.801c4.413.619 8.659 2.157 12.47 4.538l.243.152h7.287v-9.28l6-2v-7.441l-6-2v-9.279h-7.287l-.243.152c-5.074 3.171-10.919 4.848-16.904 4.848h-4.566c-4.963 0-9 4.037-9 9v2c0 4.625 3.507 8.442 8 8.941v8.17c-.269.275-.515.573-.736.889h-12.264c-1.654 0-3 1.346-3 3v2c0 1.345.895 2.472 2.116 2.852l1.147 7.643-2.384 2.385c-.567.565-.879 1.319-.879 2.12s.312 1.555.879 2.121 1.32.879 2.121.879c.474 0 .927-.122 1.339-.329l.416 2.775c.224 1.48 1.472 2.554 2.968 2.554h26.555c1.496 0 2.744-1.074 2.968-2.555l.416-2.774c.411.207.864.329 1.338.329.801 0 1.555-.312 2.121-.879.036-.036.062-.079.096-.116 1.825 3.553 5.521 5.995 9.783 5.995 6.065 0 11-4.935 11-11s-4.935-11-11-11zm-19.756 2h6.594l-.861 5.735zm7.756-6c.552 0 1 .448 1 1v2c0 .552-.448 1-1 1h-9.755l-1.281-1.282c.023-.236.036-.476.036-.718 0-.695-.105-1.366-.295-2zm-9 24h-2v-8c0-.552.448-1 1-1s1 .448 1 1zm-1-11c-1.654 0-3 1.346-3 3v8h-2v-8c0-1.654-1.346-3-3-3s-3 1.346-3 3v8h-2v-8c0-1.654-1.346-3-3-3-.321 0-.625.064-.916.158l5.223-5.223c1.074.671 2.337 1.065 3.693 1.065s2.619-.394 3.693-1.065l5.223 5.223c-.291-.094-.595-.158-.916-.158zm-7 11h-2v-8c0-.552.448-1 1-1s1 .448 1 1zm-8 0h-2v-8c0-.552.448-1 1-1s1 .448 1 1zm10-28.315c-.911-.434-1.926-.685-3-.685s-2.089.251-3 .685v-6.685h3.566c.815 0 1.626.037 2.434.099zm26-18.964v4.559l-4 1.334v-7.226zm-6 15.279h-4v-26h4zm-6-25.272v24.544c-5.025-2.789-10.664-4.272-16.434-4.272h-1.566v-16h1.566c5.77 0 11.409-1.483 16.434-4.272zm-28 13.272v-2c0-3.859 3.141-7 7-7h1v16h-1c-3.859 0-7-3.141-7-7zm11 17c2.757 0 5 2.243 5 5s-2.243 5-5 5-5-2.243-5-5 2.243-5 5-5zm-19 4c0-.552.448-1 1-1h11.295c-.19.634-.295 1.305-.295 2 0 .243.013.483.037.719l-1.281 1.281h-9.756c-.552 0-1-.448-1-1zm2.162 5h6.595l-5.734 5.735zm-1.869 12.707c-.191-.191-.293-.436-.293-.707s.102-.516.293-.707l12.359-12.361c.29.625.669 1.199 1.121 1.708l-12.066 12.067c-.383.383-1.031.383-1.414 0zm4.44 4.441-.605-4.035 4.03-4.03c-.094.292-.158.596-.158.917v8h-2.277c-.492 0-.916-.366-.99-.852zm27.544.852h-2.277v-8c0-.321-.064-.625-.158-.916l4.03 4.03-.605 4.034c-.074.486-.498.852-.99.852zm5.43-5.293c-.383.383-1.031.383-1.414 0l-12.067-12.067c.453-.509.832-1.084 1.122-1.709l12.359 12.362c.191.191.293.436.293.707s-.102.516-.293.707zm11.293 5.293c-4.963 0-9-4.037-9-9s4.037-9 9-9 9 4.037 9 9-4.037 9-9 9z"/></svg>