<svg id="Layer_5" enable-background="new 0 0 64 64" height="512" viewBox="0 0 64 64" width="512" xmlns="http://www.w3.org/2000/svg"><path d="m60 1h-28c-1.654 0-3 1.346-3 3v9.682c-2.452-1.076-5.155-1.682-8-1.682-11.028 0-20 8.972-20 20 0 9.47 6.626 17.551 15.699 19.534l-7.699 8.066v3.4h44v-22.586l6-6v7.586h2v-11h-11v2h7.586l-14.616 14.616-5.189-4.757c2.1-3.237 3.219-6.967 3.219-10.859 0-1.022-.101-2.019-.25-3h19.25c1.654 0 3-1.346 3-3v-22c0-1.654-1.346-3-3-3zm-13 4v2h-2v-2h-2v2h-2v-4h10v4h-2v-2zm-39.949 26c.221-3.108 1.455-5.934 3.381-8.154l2.79 2.79 1.414-1.414-2.79-2.79c2.22-1.926 5.047-3.16 8.154-3.381v3.949h2v-3.949c3.108.221 5.934 1.455 8.154 3.381l-2.79 2.79 1.414 1.414 2.79-2.79c1.926 2.22 3.16 5.047 3.381 8.154h-3.949v2h3.964c-.143 2.017-.719 3.964-1.689 5.729l-2.322-2.128-5.985 6.27c-.009-.093-.008-.187-.023-.279l-1.794-10.77c-.177-1.056-1.081-1.822-2.151-1.822s-1.974.766-2.151 1.821l-1.794 10.769c-.037.218-.055.437-.055.658v.752c0 .526.108 1.026.293 1.486-5.613-1.545-9.816-6.495-10.242-12.486h3.949v-2zm11.949 13v-.752c0-.109.009-.22.027-.329l1.794-10.768c.03-.175.327-.175.356 0l1.794 10.769c.02.108.029.219.029.328v.752c0 1.103-.897 2-2 2s-2-.897-2-2zm8-.361v17.361h-4v-13.171zm2-2.095 2.047-2.144 1.953 1.79v19.81h-4zm6 1.479 4 3.667v14.31h-4zm-14 17.977h-4v-6.885l4-4.19zm-10-.6 4-4.19v4.79h-4zm40 .6h-4v-14.586l4-4zm-7.97-10.616 1.97-1.97v12.586h-4v-12.477zm-6.742-8.893-1.504-1.379c1.447-2.454 2.216-5.238 2.216-8.112 0-8.822-7.178-16-16-16s-16 7.178-16 16c0 8.523 6.705 15.492 15.115 15.955l-1.753 1.836c-8.789-1.29-15.362-8.846-15.362-17.791 0-9.925 8.075-18 18-18s18 8.075 18 18c0 3.39-.939 6.645-2.712 9.491zm24.712-15.491c0 .551-.449 1-1 1h-19.658c-1.356-5.236-4.772-9.641-9.342-12.294v-10.706c0-.551.449-1 1-1h7v6h14v-6h7c.551 0 1 .449 1 1z"/><path d="m49 23h2v2h-2z"/><path d="m57 23h2v2h-2z"/><path d="m53 23h2v2h-2z"/><path d="m49 19h10v2h-10z"/></svg>