<svg id="Layer_5" enable-background="new 0 0 64 64" height="512" viewBox="0 0 64 64" width="512" xmlns="http://www.w3.org/2000/svg"><path d="m16 9h14c.552 0 1-.449 1-1v-4c0-.551-.448-1-1-1h-14c-.552 0-1 .449-1 1v4c0 .551.448 1 1 1z"/><path d="m11 27h6v6h-6z"/><path d="m41 9v5.585l2-2v-4.585c0-1.654-1.346-3-3-3h-7v2h6c1.103 0 2 .897 2 2z"/><path d="m11 39h6v6h-6z"/><path d="m5 49v-40c0-1.103.897-2 2-2h6v-2h-7c-1.654 0-3 1.346-3 3v42c0 1.654 1.346 3 3 3h27v-2h-26c-1.103 0-2-.897-2-2z"/><path d="m28.022 19.275h23.456v2.95h-23.456z" transform="matrix(.707 -.707 .707 .707 -3.03 34.185)"/><path d="m50.878 8.05h2.243v7.899h-2.243z" transform="matrix(.707 -.707 .707 .707 6.745 40.284)"/><path d="m59.843 9.743c.746-.746 1.157-1.738 1.157-2.793 0-2.178-1.772-3.95-3.95-3.95-1.055 0-2.047.411-2.793 1.157l-2.843 2.843 5.586 5.586z"/><path d="m43 29.414-2 2v7.586h2z"/><path d="m53 45v-4h-10v4h2v-2h2v2h2v-2h2v2z"/><path d="m27.044 36.064c-.029.078-.044.159-.044.243 0 .466.511.808.935.65l6.26-2.348-4.804-4.804z"/><path d="m31.522 22.775h23.456v2.95h-23.456z" transform="matrix(.707 -.707 .707 .707 -4.48 37.685)"/><path d="m11.293 17.707 1.414-1.414 1.293 1.293 2.586-2.586h-5.586v6h6v-3.586l-3 3z"/><path d="m39 39v-5.586l-2.446 2.446-7.915 2.969c-.302.113-.62.171-.946.171-1.485 0-2.693-1.208-2.693-2.693 0-.325.058-.644.172-.946l2.968-7.914 10.86-10.861v-7.586h-6.184c-.414 1.161-1.514 2-2.816 2h-14c-1.302 0-2.402-.839-2.816-2h-6.184v40h26v-7c0-1.654 1.346-3 3-3zm-16-26h8v2h-8zm0 4h8v2h-8zm0 4h8v2h-8zm-4 26h-10v-10h10zm0-12h-10v-10h10zm0-19.586v7.586h-10v-10h9.586l1.707-1.707 1.414 1.414zm12 31.586h-8v-2h8zm0-4h-8v-2h8z"/><path d="m60 41h-5v6h-14v-6h-5c-.552 0-1 .448-1 1v18c0 .552.448 1 1 1h24c.552 0 1-.448 1-1v-18c0-.552-.448-1-1-1zm-9 18h-2v-2h2zm4 0h-2v-2h2zm4 0h-2v-2h2zm0-4h-10v-2h10z"/></svg>