<svg height="512pt" viewBox="-26 0 512 512.001" width="512pt" xmlns="http://www.w3.org/2000/svg"><path d="m130.003906 96.121094c-13.039062 0-25.296875 5.078125-34.511718 14.296875-9.222657 9.21875-14.296876 21.476562-14.296876 34.511719 0 13.042968 5.074219 25.296874 14.292969 34.515624s21.476563 14.296876 34.515625 14.296876c13.039063 0 25.296875-5.078126 34.515625-14.296876s14.296875-21.476562 14.296875-34.515624c0-13.035157-5.078125-25.292969-14.296875-34.511719-9.214843-9.21875-21.472656-14.296875-34.515625-14.296875zm20.371094 69.183594c-5.4375 5.441406-12.671875 8.4375-20.371094 8.4375-7.695312 0-14.929687-2.996094-20.371094-8.4375-5.441406-5.441407-8.4375-12.675782-8.4375-20.371094 0-7.699219 2.996094-14.933594 8.4375-20.375 5.441407-5.4375 12.675782-8.433594 20.371094-8.433594 7.699219 0 14.933594 2.996094 20.371094 8.433594 5.441406 5.441406 8.4375 12.675781 8.4375 20.375 0 7.695312-2.996094 14.929687-8.4375 20.371094zm0 0"/><path d="m130.003906 67.898438c-20.574218 0-39.917968 8.011718-54.46875 22.5625-14.550781 14.550781-22.566406 33.894531-22.566406 54.472656 0 20.574218 8.015625 39.917968 22.566406 54.46875 5.601563 5.605468 11.972656 10.269531 18.886719 13.875-9.445313 3.269531-16.25 12.253906-16.25 22.800781 0 13.292969 10.816406 24.113281 24.113281 24.113281h3.605469v3.605469c0 13.296875 10.816406 24.113281 24.113281 24.113281s24.113282-10.816406 24.113282-24.113281v-3.605469h3.605468c13.296875 0 24.113282-10.816406 24.113282-24.113281 0-10.546875-6.804688-19.53125-16.25-22.800781 6.914062-3.601563 13.28125-8.269532 18.890624-13.875 14.550782-14.546875 22.5625-33.894532 22.5625-54.46875 0-20.578125-8.011718-39.921875-22.5625-54.472656-14.554687-14.550782-33.898437-22.5625-54.472656-22.5625zm40.328125 117.363281c-7.804687 7.800781-17.59375 13.140625-28.3125 15.4375-4.609375.988281-7.902343 5.0625-7.902343 9.777343v11.488282c0 5.523437 4.476562 10 10 10h13.609374c2.265626 0 4.109376 1.84375 4.109376 4.109375 0 2.269531-1.84375 4.113281-4.109376 4.113281h-13.609374c-5.523438 0-10 4.476562-10 10v13.609375c0 2.269531-1.847657 4.113281-4.113282 4.113281s-4.109375-1.84375-4.109375-4.113281v-13.609375c0-5.523438-4.480469-10-10-10h-13.609375c-2.269531 0-4.113281-1.84375-4.113281-4.113281 0-2.265625 1.847656-4.109375 4.113281-4.109375h13.609375c5.519531 0 10-4.476563 10-10v-11.488282c0-4.714843-3.292969-8.789062-7.90625-9.777343-10.71875-2.296875-20.507812-7.636719-28.3125-15.4375-10.769531-10.773438-16.703125-25.097657-16.703125-40.328125 0-15.234375 5.933594-29.558594 16.703125-40.328125 10.773438-10.773438 25.097657-16.707031 40.328125-16.707031 15.234375 0 29.554688 5.933593 40.328125 16.707031 10.773438 10.769531 16.707031 25.09375 16.707031 40.328125 0 15.230468-5.933593 29.554687-16.707031 40.328125zm0 0"/><path d="m401.726562 226.222656c0-5.523437-4.476562-10-10-10h-135.207031v-17.449218c51.28125-3.863282 101.574219-37.027344 130.253907-86.707032 2.761718-4.78125 1.121093-10.898437-3.660157-13.660156-4.785156-2.761719-10.898437-1.121094-13.660156 3.660156-25.148437 43.554688-68.644531 72.757813-112.933594 76.632813v-81.351563c0-5.523437-4.480469-10-10-10-5.523437 0-10.003906 4.476563-10.003906 10v128.875c0 5.523438 4.480469 10 10.003906 10h145.207031c5.523438 0 10-4.476562 10-10zm0 0"/><path d="m391.726562 267.597656h-31.035156c-5.523437 0-10 4.476563-10 10 0 5.523438 4.476563 10 10 10h31.035156c5.523438 0 10-4.476562 10-10 0-5.523437-4.476562-10-10-10zm0 0"/><path d="m460.03125 33.960938v-9.683594c0-13.367188-11.207031-24.246094-24.984375-24.246094h-310.054687c-5.523438 0-10 4.476562-10 10s4.476562 10.003906 10 10.003906h310.054687c2.699219 0 4.980469 1.941406 4.980469 4.242188v9.683594c0 2.300781-2.28125 4.246093-4.980469 4.246093h-410.0625c-2.699219 0-4.984375-1.945312-4.984375-4.246093v-9.683594c0-2.300782 2.285156-4.242188 4.984375-4.242188h31.035156c5.523438 0 10.003907-4.480468 10.003907-10.003906s-4.480469-10-10.003907-10h-31.035156c-13.773437 0-24.984375 10.878906-24.984375 24.246094v9.683594c0 11.402343 8.152344 20.984374 19.097656 23.558593v240.765625c-10.945312 2.578125-19.097656 12.160156-19.097656 23.558594v9.683594c0 13.371094 11.210938 24.246094 24.984375 24.246094h64.222656l-44.441406 143.261718c-.941406 3.035156-.382813 6.335938 1.5 8.898438 1.886719 2.558594 4.875 4.066406 8.050781 4.066406h39.96875c4.382813 0 8.253906-2.851562 9.554688-7.039062l46.277344-149.1875h50.8125v146.226562c0 5.523438 4.476562 10 10 10h38.171874c5.523438 0 10.003907-4.476562 10.003907-10v-146.226562h50.8125l46.277343 149.1875c1.296876 4.1875 5.167969 7.039062 9.550782 7.039062h39.96875c3.179687 0 6.164062-1.507812 8.050781-4.066406s2.441406-5.859375 1.5-8.894532l-44.441406-143.261718h64.222656c13.777344 0 24.984375-10.878906 24.984375-24.25v-9.679688c0-11.402344-8.152344-20.984375-19.09375-23.5625v-240.765625c10.941406-2.574219 19.09375-12.15625 19.09375-23.558593zm-420.933594 263.636718v-239.390625h381.835938v239.390625zm47.820313 194.402344h-19.027344l42.257813-136.226562h19.027343zm152.183593 0h-18.171874v-136.226562h18.171874zm153.039063 0h-19.027344l-42.253906-136.226562h19.023437zm47.886719-160.472656c0 2.300781-2.28125 4.246094-4.980469 4.246094h-77.738281c-.03125 0-.0625 0-.09375 0h-39.859375c-.039063 0-.078125 0-.121094 0h-174.449219c-.03125 0-.066406 0-.097656 0h-39.871094c-.03125 0-.066406 0-.097656 0h-77.734375c-2.699219 0-4.984375-1.945313-4.984375-4.246094v-9.683594c0-2.300781 2.285156-4.242188 4.984375-4.242188h410.0625c2.699219 0 4.980469 1.941407 4.980469 4.242188zm0 0"/><path d="m94.507812 10c0 5.523438-4.476562 10-10 10-5.523437 0-10.003906-4.476562-10.003906-10s4.480469-10 10.003906-10c5.523438 0 10 4.476562 10 10zm0 0"/><path d="m340.023438 277.019531c0 5.523438-4.476563 10-10 10-5.523438 0-10-4.476562-10-10 0-5.523437 4.476562-10 10-10 5.523437 0 10 4.476563 10 10zm0 0"/></svg>